HIERARCHY
ROOT Hips
{
  OFFSET 55.1295 96.1608 7.73218
  CHANNELS 6 Xposition Yposition Zposition Zrotation Xrotation Yrotation
  JOINT spine
  {
    OFFSET 0 8.13249 0.467659
    CHANNELS 3 Zrotation Xrotation Yrotation
    JOINT spine1
    {
      OFFSET 0 10.3498 0
      CHANNELS 3 Zrotation Xrotation Yrotation
      JOINT spine2
      {
        OFFSET 0 9.91699 0
        CHANNELS 3 Zrotation Xrotation Yrotation
        JOINT Neck
        {
          OFFSET 0 25.461 1.2139
          CHANNELS 3 Zrotation Xrotation Yrotation
          JOINT Head
          {
            OFFSET 0 7.69245 0
            CHANNELS 3 Zrotation Xrotation Yrotation
            End Site
            {
              OFFSET 0 18.62 -6.14063
            }
          }
        }
        JOINT RightShoulder
        {
          OFFSET -4.17575 10.7096 -0.581445
          CHANNELS 3 Zrotation Xrotation Yrotation
          JOINT RightArm
          {
            OFFSET 0 14.0466 0
            CHANNELS 3 Zrotation Xrotation Yrotation
            JOINT RightArmRoll
            {
              OFFSET 0 7.09098 0
              CHANNELS 3 Zrotation Xrotation Yrotation
              JOINT RightForeArm
              {
                OFFSET 0 20.6535 0
                CHANNELS 3 Zrotation Xrotation Yrotation
                JOINT RightForeArmRoll
                {
                  OFFSET 0 7.95718 0
                  CHANNELS 3 Zrotation Xrotation Yrotation
                  JOINT RightHand
                  {
                    OFFSET 0 15.9683 0
                    CHANNELS 3 Zrotation Xrotation Yrotation
                    End Site
                    {
                      OFFSET 0 0 0
                    }
                  }
                }
              }
            }
          }
        }
        JOINT LeftShoulder
        {
          OFFSET 4.17575 10.7096 -0.581445
          CHANNELS 3 Zrotation Xrotation Yrotation
          JOINT LeftArm
          {
            OFFSET 0 14.0466 0
            CHANNELS 3 Zrotation Xrotation Yrotation
            JOINT LeftArmRoll
            {
              OFFSET 0 7.09098 0
              CHANNELS 3 Zrotation Xrotation Yrotation
              JOINT LeftForeArm
              {
                OFFSET 0 20.6535 0
                CHANNELS 3 Zrotation Xrotation Yrotation
                JOINT LeftForeArmRoll
                {
                  OFFSET 0 7.95718 0
                  CHANNELS 3 Zrotation Xrotation Yrotation
                  JOINT LeftHand
                  {
                    OFFSET 0 15.9683 0
                    CHANNELS 3 Zrotation Xrotation Yrotation
                    End Site
                    {
                      OFFSET 0 0 0
                    }
                  }
                }
              }
            }
          }
        }
      }
    }
  }
  JOINT RightUpLeg
  {
    OFFSET -7.20834 -1.32182 -1.10884
    CHANNELS 3 Zrotation Xrotation Yrotation
    JOINT RightUpLegRoll
    {
      OFFSET 0 18.7238 0
      CHANNELS 3 Zrotation Xrotation Yrotation
      JOINT RightLeg
      {
        OFFSET 0 -23.1866 0
        CHANNELS 3 Zrotation Xrotation Yrotation
        JOINT RightLegRoll
        {
          OFFSET 0 23.2624 0
          CHANNELS 3 Zrotation Xrotation Yrotation
          JOINT RightFoot
          {
            OFFSET 0 19.3621 0
            CHANNELS 3 Zrotation Xrotation Yrotation
            JOINT RightToeBase
            {
              OFFSET 0 16.1857 0
              CHANNELS 3 Zrotation Xrotation Yrotation
              End Site
              {
                OFFSET 0.00686052 7.83863 -0.903522
              }
            }
          }
        }
      }
    }
  }
  JOINT LeftUpLeg
  {
    OFFSET 7.20834 -1.32182 -1.10884
    CHANNELS 3 Zrotation Xrotation Yrotation
    JOINT LeftUpLegRoll
    {
      OFFSET 0 18.7239 0
      CHANNELS 3 Zrotation Xrotation Yrotation
      JOINT LeftLeg
      {
        OFFSET 0 23.1865 0
        CHANNELS 3 Zrotation Xrotation Yrotation
        JOINT LeftLegRoll
        {
          OFFSET 0 23.4775 0
          CHANNELS 3 Zrotation Xrotation Yrotation
          JOINT LeftFoot
          {
            OFFSET 0 19.147 0
            CHANNELS 3 Zrotation Xrotation Yrotation
            JOINT LeftToeBase
            {
              OFFSET 0 16.1857 0
              CHANNELS 3 Zrotation Xrotation Yrotation
              End Site
              {
                OFFSET -0.0307459 7.83863 -0.903522
              }
            }
          }
        }
      }
    }
  }
}
MOTION
Frames: 7
Frame Time: 0.00208333
54.3279 96.1548 5.96388 -0.823004 -3.14941 1.61367 0.50632 -1.19158 0.069942 1.02797 1.61982 0.0841795 1.02795 3.26475 0.0668901 -5.71523 8.62261 -4.53058 4.07308 0.942319 -5.52236 59.2208 -9.20498 -5.72656 111.227 19.9864 25.9135 1.25487e-006 -2.17462e-007 -4.72925e-006 1.47406 0.00661409 -0.399407 -4.17405e-006 -2.18137e-006 -3.01909 8.03012 -4.95137 0.697654 -62.1333 -7.24395 4.61581 -109.273 15.8679 -13.321 -1.13591e-006 3.69269e-006 2.80155e-006 -6.46633 0.0428745 1.21061 -9.72771e-009 3.94205e-006 3.02876 -8.02934 -4.95142 -0.697651 173.369 2.06569 3.33055 -180 7.01565e-015 179.006 178.711 9.61173 179.636 -6.88115e-008 -1.91501e-007 -0.0280067 -16.3664 67.7062 19.2673 8.13649 25.2327 -3.48774 -173.024 1.20518 -2.05179 4.54188e-006 -4.6773e-006 -0.919199 -1.66056 -11.8551 0.39669 1.73508e-006 -1.14918e-006 -0.0850708 18.247 70.5415 -21.7189 -8.13656 25.2337 3.48638 
54.3377 96.153 5.95967 -0.825351 -3.14125 1.61823 0.509878 -1.19454 0.0703727 1.03404 1.6139 0.0847083 1.03401 3.25882 0.0673258 -5.75945 8.61768 -4.52827 4.10127 0.954121 -5.52782 59.1798 -9.22296 -5.73717 111.263 19.9808 25.9486 1.25487e-006 -2.17462e-007 -4.72925e-006 1.43966 0.00661984 -0.397418 -4.17405e-006 -2.18137e-006 -3.01911 8.03012 -4.95137 0.697654 -62.1561 -7.22682 4.60645 -109.262 15.8569 -13.3662 -1.13591e-006 3.69269e-006 2.80155e-006 -6.4453 0.0428763 1.21245 -9.72772e-009 3.94205e-006 3.02876 -8.02934 -4.95142 -0.697651 173.371 2.06821 3.32991 -180 7.01565e-015 179.006 178.709 9.60513 179.636 -6.88115e-008 -1.91501e-007 -0.0280072 -16.3666 67.7032 19.2667 8.13649 25.2327 -3.48774 -173.023 1.21548 -2.05214 4.54188e-006 -4.6773e-006 -0.919151 -1.66077 -11.8598 0.39661 1.73508e-006 -1.14918e-006 -0.085 18.2477 70.5442 -21.7206 -8.13656 25.2337 3.48638 
54.3395 96.1368 5.96471 -0.828004 -3.13151 1.62391 0.514129 -1.19809 0.0712574 1.04147 1.60681 0.0860738 1.04141 3.25173 0.0685762 -5.81151 8.61569 -4.52654 4.13482 0.964829 -5.53523 59.1302 -9.24333 -5.74911 111.306 19.971 25.9838 1.25487e-006 -2.17462e-007 -4.72925e-006 1.40525 0.00662836 -0.39537 -4.17405e-006 -2.18137e-006 -3.01908 8.03012 -4.95137 0.697654 -62.1849 -7.20463 4.59424 -109.246 15.8448 -13.4111 -1.13591e-006 3.69269e-006 2.80155e-006 -6.42535 0.042878 1.21424 -9.72772e-009 3.94205e-006 3.02876 -8.02934 -4.95142 -0.697651 173.373 2.07182 3.32933 -180 7.01565e-015 179.006 178.707 9.59812 179.636 -6.88115e-008 -1.91501e-007 -0.0280054 -16.367 67.7001 19.2661 8.13649 25.2327 -3.48774 -173.021 1.22764 -2.05259 4.54188e-006 -4.6773e-006 -0.919079 -1.66122 -11.8649 0.396515 1.73508e-006 -1.14918e-006 -0.0848947 18.248 70.547 -21.7224 -8.13656 25.2337 3.48638 
54.3286 96.1379 5.96774 -0.830872 -3.12067 1.63037 0.518866 -1.20204 0.0724598 1.04984 1.59891 0.088025 1.04976 3.24382 0.0703969 -5.86906 8.61577 -4.5252 4.17211 0.97477 -5.544 59.0747 -9.26539 -5.76201 111.353 19.9581 26.019 1.25487e-006 -2.17462e-007 -4.72925e-006 1.37085 0.00663881 -0.393281 -4.17405e-006 -2.18137e-006 -3.01901 8.03012 -4.95137 0.697654 -62.218 -7.17887 4.58005 -109.228 15.832 -13.4558 -1.13591e-006 3.69269e-006 2.80155e-006 -6.40614 0.0428797 1.21598 -9.72772e-009 3.94205e-006 3.02876 -8.02934 -4.95142 -0.697651 173.375 2.0762 3.32879 -180 7.01565e-015 179.006 178.705 9.59084 179.636 -6.88115e-008 -1.91501e-007 -0.028002 -16.3676 67.6971 19.2656 8.13649 25.2327 -3.48774 -173.019 1.24109 -2.05313 4.54188e-006 -4.6773e-006 -0.918991 -1.66184 -11.8702 0.396412 1.73508e-006 -1.14918e-006 -0.0847652 18.2481 70.5499 -21.7242 -8.13656 25.2337 3.48638 
54.3269 96.1517 5.96994 -0.833864 -3.10921 1.63729 0.52388 -1.20622 0.0738438 1.05876 1.59054 0.0903107 1.05864 3.23545 0.0725435 -5.92975 8.61702 -4.52409 4.21154 0.984274 -5.55354 59.0158 -9.28841 -5.77543 111.402 19.9435 26.0543 1.25487e-006 -2.17462e-007 -4.72925e-006 1.33644 0.00665036 -0.391167 -4.17405e-006 -2.18137e-006 -3.01892 8.03012 -4.95137 0.697654 -62.2534 -7.15109 4.56472 -109.208 15.8187 -13.5004 -1.13591e-006 3.69269e-006 2.80155e-006 -6.38735 0.0428813 1.2177 -9.72771e-009 3.94205e-006 3.02876 -8.02934 -4.95142 -0.697651 173.377 2.08101 3.32828 -180 7.01565e-015 179.006 178.703 9.58341 179.637 -6.88115e-008 -1.91501e-007 -0.0279977 -16.3681 67.6941 19.2651 8.13649 25.2327 -3.48774 -173.017 1.25528 -2.05372 4.54188e-006 -4.6773e-006 -0.918893 -1.66256 -11.8756 0.396302 1.73508e-006 -1.14918e-006 -0.0846219 18.248 70.5529 -21.726 -8.13656 25.2337 3.48638 
54.3318 96.1427 5.96539 -0.836889 -3.09758 1.64432 0.528964 -1.21047 0.0752731 1.06781 1.58205 0.0926801 1.06766 3.22696 0.0747715 -5.99122 8.61857 -4.52304 4.25151 0.993668 -5.56329 58.956 -9.31166 -5.789 111.453 19.9284 26.0896 1.25487e-006 -2.17462e-007 -4.72925e-006 1.30203 0.0066622 -0.389048 -4.17405e-006 -2.18137e-006 -3.01883 8.03012 -4.95137 0.697654 -62.2894 -7.1228 4.54912 -109.188 15.8053 -13.5449 -1.13591e-006 3.69269e-006 2.80155e-006 -6.36868 0.0428829 1.21941 -9.72771e-009 3.94205e-006 3.02876 -8.02934 -4.95142 -0.697651 173.38 2.08594 3.32777 -180 7.01565e-015 179.006 178.7 9.57594 179.637 -6.88115e-008 -1.91501e-007 -0.0279931 -16.3687 67.6911 19.2646 8.13649 25.2327 -3.48774 -173.015 1.26966 -2.05432 4.54188e-006 -4.6773e-006 -0.918793 -1.6633 -11.881 0.396192 1.73508e-006 -1.14918e-006 -0.0844751 18.2479 70.5558 -21.7278 -8.13656 25.2337 3.48638 
54.3355 96.1505 5.96862 -0.839856 -3.08627 1.65112 0.533909 -1.2146 0.0766117 1.0766 1.5738 0.0948822 1.07641 3.2187 0.0768365 -6.05112 8.61953 -4.52188 4.29041 1.00328 -5.57264 58.8979 -9.33443 -5.8023 111.502 19.9142 26.1249 1.25487e-006 -2.17462e-007 -4.72925e-006 1.26762 0.00667348 -0.386941 -4.17405e-006 -2.18137e-006 -3.01874 8.03012 -4.95137 0.697654 -62.3242 -7.09552 4.53408 -109.169 15.7922 -13.5894 -1.13591e-006 3.69269e-006 2.80155e-006 -6.34979 0.0428845 1.22113 -9.72774e-009 3.94205e-006 3.02876 -8.02934 -4.95142 -0.697651 173.382 2.09064 3.32724 -180 7.01565e-015 179.006 178.698 9.56857 179.637 -6.88115e-008 -1.91501e-007 -0.027989 -16.3693 67.688 19.2641 8.13649 25.2327 -3.48774 -173.014 1.28366 -2.05489 4.54188e-006 -4.6773e-006 -0.918698 -1.664 -11.8864 0.396084 1.73508e-006 -1.14918e-006 -0.0843352 18.2479 70.5587 -21.7296 -8.13656 25.2337 3.48638 
